# xmcd
# 
# Track frame offsets:
#   150
#   10289
#   27338
#   40962
#   56751
#   70207
#   86259
#   101995
#   123999
#   139996
#   159460
#   178939
# 
# Disc length: 2601 seconds
# 
# Revision: 1
# Processed by: cddbd v1.4PL0 Copyright (c) Steve Scherf et al.
# Submitted via: VOLTOCDX V1.0.22 
# 
DISCID=a70a270c
DTITLE=Lacy J. Dalton and Friends - Wild Horse Crossing
DYEAR=2002
DGENRE=country
TTITLE0=Robert "skip" Dees and Steven Earl Swinford - Mustang
TTITLE1=Lacy J. Dalton - Let 'em Run
TTITLE2=Steven Earl Swinford - Horseplay
TTITLE3=Richard Elloyan - The Escape
TTITLE4=Lacy J. Dalton - Wild Pony Lullaby
TTITLE5=Steven Earl Swinford - Mustang Ramble
TTITLE6=Lacy J. Dalton - Run Mustang Run
TTITLE7=Beans Sousa - Palomino, My Amigo
TTITLE8=Bruce Knowlton - Flying Outlaw Mustang
TTITLE9=John Tyson - Mustang Moon
TTITLE10=Lacy J. Dalton - Horse Comin'
TTITLE11=David John and The Comstock Cowboys- Outlaw
EXTD=
EXTT0=
EXTT1=
EXTT2=
EXTT3=
EXTT4=
EXTT5=
EXTT6=
EXTT7=
EXTT8=
EXTT9=
EXTT10=
EXTT11=
PLAYORDER=
